#N canvas 415 115 948 528 10;
#X declare -lib mrpeach;
#X obj 698 18 import mrpeach;
#X obj 482 353 packOSC;
#X obj 659 419 udpsend;
#X msg 698 376 disconnect;
#X obj 659 460 tgl 15 0 empty empty empty 17 7 0 10 -262144 -1 -1 1
1;
#X text 682 459 connected;
#X obj 91 235 bng 15 250 50 0 empty empty empty 17 7 0 10 -262144 -1
-1;
#X obj 55 90 adc~;
#X obj 420 555 fiddle~ 1024 1 20 3;
#X text 555 555 ------ arguments:;
#X obj 430 565 fiddle~ 1024 1 20 3;
#X text 565 565 ------ arguments:;
#X obj 420 555 fiddle~ 1024 1 20 3;
#X obj 430 565 fiddle~ 1024 1 20 3;
#X obj 55 162 fiddle~ 1024 1 20 3;
#X floatatom 55 234 5 0 0 0 - - -;
#X msg 219 106 auto \$1;
#X obj 219 59 tgl 15 0 empty empty empty 17 7 0 10 -262144 -1 -1 0
1;
#X obj 274 107 bng 15 250 50 0 empty empty empty 17 7 0 10 -262144
-1 -1;
#X obj 274 145 spigot;
#X obj 307 88 expr 1 - $f1;
#X obj 659 287 tgl 15 0 empty empty empty 17 7 0 10 -262144 -1 -1 1
1;
#X text 92 252 attack;
#X text 56 252 pitch;
#X floatatom 139 234 5 0 0 0 - - -;
#X text 476 698 amplitude;
#X text 486 713 (dB);
#X text 139 252 amplitude;
#X obj 659 318 moses 1;
#X msg 482 324 sendtyped /tick i 1;
#X msg 659 353 connect 192.168.178.5 8000;
#X connect 1 0 2 0;
#X connect 2 0 4 0;
#X connect 3 0 2 0;
#X connect 7 0 14 0;
#X connect 14 0 15 0;
#X connect 14 1 6 0;
#X connect 14 1 29 0;
#X connect 14 3 24 0;
#X connect 16 0 14 0;
#X connect 17 0 16 0;
#X connect 17 0 20 0;
#X connect 18 0 19 0;
#X connect 19 0 14 0;
#X connect 20 0 19 1;
#X connect 21 0 28 0;
#X connect 28 0 3 0;
#X connect 28 1 30 0;
#X connect 29 0 1 0;
#X connect 30 0 2 0;
